# AST/ASF file generated using VICON BodyLanguage
# -----------------------------------------------
:version 1.10
:name VICON
:units
  mass 1.0
  length 0.45
  angle deg
:documentation
   .ast/.asf automatically generated from VICON data using
   VICON BodyBuilder and BodyLanguage model FoxedUp or BRILLIANT.MOD
:root
   order TX TY TZ RX RY RZ
   axis XYZ
   position 0 0 0  
   orientation 0 0 0 
:bonedata
  begin
     id 1 
     name lhipjoint
     direction 0.589753 -0.68606 0.426044 
     length 2.54082 
     axis 0 0 0  XYZ
  end
  begin
     id 2 
     name lfemur
     direction 0.34202 -0.939693 0  
     length 7.04539  
     axis 0 0 20  XYZ
    dof rx ry rz
    limits (-160.0 20.0)
           (-70.0 70.0)
           (-60.0 70.0)
  end
  begin
     id 3 
     name ltibia
     direction 0.34202 -0.939693 0   
     length 7.83772   
     axis 0 0 20   XYZ
    dof rx
    limits (-10.0 170.0)
  end
  begin
     id 4 
     name lfoot
     direction 0.0596604 -0.163915 0.984669   
     length 2.39542   
     axis -90 7.62852e-016 20   XYZ
    dof rx rz
    limits (-45.0 90.0)
           (-70.0 20.0)
  end
  begin
     id 5 
     name ltoes
     direction 1.53514e-011 -4.21954e-011 1   
     length 1.2047   
     axis -90 7.62852e-016 20   XYZ
    dof rx
    limits (-90.0 20.0)
  end
  begin
     id 6 
     name rhipjoint
     direction -0.580585 -0.69168 0.429534   
     length 2.52018  
     axis 0 0 0  XYZ 
  end
  begin
     id 7 
     name rfemur
     direction -0.34202 -0.939693 0   
     length 7.0101   
     axis 0 0 -20   XYZ
    dof rx ry rz
    limits (-160.0 20.0)
           (-70.0 70.0)
           (-70.0 60.0)
  end
  begin
     id 8 
     name rtibia
     direction -0.34202 -0.939693 0   
     length 7.70628   
     axis 0 0 -20   XYZ
    dof rx
    limits (-10.0 170.0)
 end
 begin
     id 9 
     name rfoot
     direction -0.0696237 -0.19129 0.979061   
     length 2.52466  
     axis -90 -7.62852e-016 -20   XYZ
    dof rx rz
    limits (-45.0 90.0)
           (-20.0 70.0)
  end
  begin
     id 10 
     name rtoes
     direction -1.53519e-011 -4.21793e-011 1   
     length 1.266   
     axis -90 -7.62852e-016 -20   XYZ
    dof rx
    limits (-90.0 20.0)
  end
  begin
     id 11 
     name lowerback
     direction 0.00381965 0.995707 -0.0924856   
     length 2.20825   
     axis 0 0 0   XYZ
    dof rx ry rz
    limits (-20.0 45.0)
           (-30.0 30.0)
           (-30.0 30.0)
  end
  begin
     id 12 
     name upperback
     direction -0.0139043 0.999634 -0.0231929   
     length 2.21517   
     axis 0 0 0   XYZ
    dof rx ry rz
    limits (-20.0 45.0)
           (-30.0 30.0)
           (-30.0 30.0)
  end
  begin
     id 13 
     name thorax
     direction -0.0143933 0.999691 0.0202892   
     length 2.22911   
     axis 0 0 0   XYZ
    dof rx ry rz
    limits (-20.0 45.0)
           (-30.0 30.0)
           (-30.0 30.0)
  end
  begin
     id 14 
     name lowerneck
     direction -0.0251153 0.981819 0.188153   
     length 1.61782   
     axis 0 0 0   XYZ
    dof rx ry rz
    limits (-20.0 45.0)
           (-30.0 30.0)
           (-30.0 30.0)
  end
  begin
     id 15 
     name upperneck
     direction 0.0563891 0.969357 -0.239095   
     length 1.64526   
     axis 0 0 0   XYZ
    dof rx ry rz
    limits (-20.0 45.0)
           (-30.0 30.0)
           (-30.0 30.0)
  end
  begin
     id 16
     name head
     direction 0.0208328 0.99459 -0.101773  
     length 1.67436  
     axis 0 0 0   XYZ
    dof rx ry rz
    limits (-20.0 45.0)
           (-30.0 30.0)
           (-30.0 30.0)
  end
  begin
     id 17 
     name lclavicle
     direction 0.917689 0.397224 0.00772059  
     length 3.31102  
     axis 0 0 0   XYZ
    dof ry rz
    limits (-20.0 10.0)
           (0.0 20.0)
  end
  begin
     id 18 
     name lhumerus
     direction 1 -4.4896e-011 2.32308e-027   
     length 5.25537   
     axis 180 -30 -90   XYZ
    dof rx ry rz
    limits (-60.0 90.0)
           (-90.0 90.0)
           (-90.0 90.0)
  end
  begin
     id 19
     name lradius
     direction 1 -4.49005e-011 -2.04271e-027   
     length 3.38855   
     axis 180 -30 -90   XYZ
    dof rx
    limits (-10.0 170.0)
  end
  begin
     id 20
     name lwrist
     direction 1 -4.48892e-011 2.56952e-028   
     length 1.69428   
     axis -5.12785e-016 90 90   XYZ
    dof ry
    limits (-180.0 0.0)
 end
  begin
     id 21 
     name lhand
     direction 1 -4.48966e-011 5.13905e-028   
     length 0.614516   
     axis -3.27915e-016 90 90   XYZ
    dof rx rz
    limits (-90.0 90.0)
           (-45.0 45.0)
  end
  begin
     id 22 
     name lfingers
     direction 1 -4.48979e-011 1.02781e-027   
     length 0.495439   
     axis -6.5583e-016 90 90   XYZ
    dof rx
    limits (0.0 90.0)
  end
  begin
     id 23
     name lthumb
     direction 0.707107 -6.35001e-011 0.707107   
     length 0.711354   
     axis -90 45 2.85299e-015   XYZ
    dof rx rz
    limits (-45.0 45.0)
           (-45.0 45.0)
  end
  begin
     id 24 
     name rclavicle
     direction -0.938556 0.342765 -0.0403177   
     length 3.27019  
     axis 0 0 0   XYZ 
    dof ry rz
    limits (-10.0 20.0)
           (-20.0 0.0)
  end
  begin
     id 25 
     name rhumerus
     direction -1 -4.48966e-011 2.52291e-027  
     length 5.38183   
     axis 180 30 90   XYZ
    dof rx ry rz
    limits (-90.0 60.0)
           (-90.0 90.0)
           (-90.0 90.0)
  end
  begin
     id 26 
     name rradius
     direction -1 -4.4896e-011 1.5797e-027   
     length 3.16988   
     axis 180 30 90   XYZ
    dof rx
    limits (-10.0 170.0)
  end
  begin
     id 27 
     name rwrist
     direction -1 -4.48947e-011 2.56952e-028   
     length 1.58494   
     axis -5.12785e-016 -90 -90   XYZ
    dof ry
    limits (-180.0 0.0)
  end
  begin
     id 28
     name rhand
     direction -1 -4.49098e-011 5.13905e-028   
     length 0.637679   
     axis -3.27915e-016 -90 -90   XYZ
    dof rx rz
    limits (-90.0 90.0)
           (-45.0 45.0)
  end
  begin
     id 29
     name rfingers
     direction -1 -4.49026e-011 1.02781e-027   
     length 0.514113   
     axis -6.5583e-016 -90 -90   XYZ
    dof rx
    limits (0.0 90.0)
  end
  begin
     id 30
     name rthumb
     direction -0.707107 -6.3491e-011 0.707107   
     length 0.738167   
     axis -90 -45 -2.85299e-015   XYZ
    dof rx rz
    limits (-45.0 45.0)
           (-45.0 45.0)
  end
:hierarchy
  begin
    root lhipjoint rhipjoint lowerback
    lhipjoint lfemur
    lfemur ltibia
    ltibia lfoot
    lfoot ltoes
    rhipjoint rfemur
    rfemur rtibia
    rtibia rfoot
    rfoot rtoes
    lowerback upperback
    upperback thorax
    thorax lowerneck lclavicle rclavicle
    lowerneck upperneck
    upperneck head
    lclavicle lhumerus
    lhumerus lradius
    lradius lwrist
    lwrist lhand lthumb
    lhand lfingers
    rclavicle rhumerus
    rhumerus rradius
    rradius rwrist
    rwrist rhand rthumb
    rhand rfingers
  end

#!OML:ASF H:\Swim\Project 1\Capture day 1\Session 1\swimmer.ASF
:FULLY-SPECIFIED
:DEGREES
1
root 3.35603 17.5264 -32.3269 7.55067 1.14612 0.947266
lowerback -4.48376 -0.406605 -0.221666
upperback 2.39828 -0.441689 -1.85473
thorax 4.98546 -0.192851 -1.83581
lowerneck -22.3103 -5.89786 -8.77276
upperneck 24.4095 -8.21303 10.0573
head 12.6438 -3.16869 3.87352
rclavicle -8.84592e-015 -1.51076e-014
rhumerus -14.5757 6.19457 -13.5563
rradius 23.0241
rwrist -17.4789
rhand -5.66135 3.91986
rfingers 7.12502
rthumb 20.1579 -25.0543
lclavicle -8.84592e-015 -1.51076e-014
lhumerus -20.2298 1.35514 9.87514
lradius 20.6721
lwrist -7.93926
lhand -7.75421 4.3161
lfingers 7.12502
lthumb 18.1453 33.4897
rfemur -12.9576 26.3483 16.927
rtibia 29.8442
rfoot -37.2963 -33.6955
rtoes 14.0323
lfemur -13.0463 -20.2653 -13.8457
ltibia 26.6022
lfoot -19.15 25.778
ltoes 2.07882
2
root 3.35165 17.5262 -32.3237 7.5931 1.16015 0.938416
lowerback -4.51247 -0.413473 -0.226744
upperback 2.3932 -0.451228 -1.83351
thorax 4.99638 -0.198096 -1.81205
lowerneck -21.6944 -5.95342 -9.13095
upperneck 23.9745 -8.25273 10.3258
head 12.3853 -3.20969 4.02593
rclavicle -7.65321e-015 -7.15625e-015
rhumerus -14.5298 6.08033 -13.5216
rradius 23.0078
rwrist -17.4141
rhand -5.62012 4.05209
rfingers 7.12502
rthumb 20.1975 -24.9179
lclavicle -7.65321e-015 -7.15625e-015
lhumerus -20.1562 1.32546 9.87347
lradius 20.7304
lwrist -7.94816
lhand -8.09489 4.38943
lfingers 7.12502
lthumb 17.8175 33.5932
rfemur -12.9988 26.3425 16.9455
rtibia 29.8738
rfoot -37.3771 -33.6438
rtoes 14.1116
lfemur -13.0806 -20.3584 -13.802
ltibia 26.5901
lfoot -19.2288 25.8329
ltoes 2.24474
3
root 3.34801 17.5256 -32.3204 7.6256 1.14904 0.944331
lowerback -4.49692 -0.409519 -0.213623
upperback 2.39382 -0.446691 -1.84034
thorax 4.98817 -0.195324 -1.82593
lowerneck -22.2255 -5.99412 -8.7646
upperneck 24.4329 -8.30042 9.85133
head 12.6341 -3.23541 3.7762
rclavicle -2.08724e-015 -5.56597e-015
rhumerus -14.5156 6.08686 -13.5308
rradius 23.0501
rwrist -17.4682
rhand -5.7479 3.84917
rfingers 7.12502
rthumb 20.0747 -25.1337
lclavicle -2.08724e-015 -5.56597e-015
lhumerus -20.0831 1.25111 9.85679
lradius 20.8073
lwrist -7.90895
lhand -8.23372 4.74546
lfingers 7.12502
lthumb 17.6839 33.9613
rfemur -13.0326 26.3577 16.9371
rtibia 29.8913
rfoot -37.4427 -33.6278
rtoes 14.1151
lfemur -13.0972 -20.4416 -13.792
ltibia 26.5959
lfoot -19.2942 25.8979
ltoes 2.30971
4
root 3.34442 17.5252 -32.3167 7.68106 1.15613 0.939485
lowerback -4.52977 -0.417848 -0.205502
upperback 2.38958 -0.458443 -1.83102
thorax 5.0021 -0.200992 -1.8222
lowerneck -22.1658 -5.95989 -8.83906
upperneck 24.4113 -8.25434 9.94223
head 12.6169 -3.21251 3.83326
rclavicle 7.35503e-015 2.90226e-014
rhumerus -14.4751 6.02671 -13.5238
rradius 23.037
rwrist -17.4476
rhand -5.79605 3.98967
rfingers 7.12502
rthumb 20.0284 -24.9981
lclavicle 7.35503e-015 2.90226e-014
lhumerus -19.9871 1.40063 9.84317
lradius 20.8299
lwrist -8.07435
lhand -8.63322 4.4334
lfingers 7.12502
lthumb 17.2995 33.6835
rfemur -13.0842 26.3572 16.9362
rtibia 29.91
rfoot -37.5795 -33.5164
rtoes 14.3202
lfemur -13.1516 -20.4549 -13.7552
ltibia 26.5983
lfoot -19.2798 25.9335
ltoes 2.25087
5
root 3.34094 17.5248 -32.3132 7.72751 1.15732 0.942798
lowerback -4.55053 -0.419743 -0.20145
upperback 2.38607 -0.461195 -1.82771
thorax 5.01016 -0.202252 -1.8215
lowerneck -22.1397 -5.95388 -8.86579
upperneck 24.4206 -8.24136 9.95055
head 12.6156 -3.20894 3.84405
rclavicle -2.5842e-015 -2.38542e-015
rhumerus -14.4553 5.99179 -13.521
rradius 23.0418
rwrist -17.434
rhand -5.88702 4.01221
rfingers 7.12502
rthumb 19.941 -24.9847
lclavicle -2.5842e-015 -2.38542e-015
lhumerus -19.8976 1.45124 9.83503
lradius 20.8755
lwrist -8.15639
lhand -8.95216 4.36717
lfingers 7.12502
lthumb 16.9925 33.6439
rfemur -13.13 26.3603 16.9283
rtibia 29.9294
rfoot -37.6776 -33.4749
rtoes 14.3814
lfemur -13.1907 -20.519 -13.7332
ltibia 26.6
lfoot -19.3116 25.9949
ltoes 2.28379
6
root 3.33768 17.5245 -32.3097 7.77298 1.15568 0.949208
lowerback -4.56865 -0.41908 -0.199205
upperback 2.38128 -0.460379 -1.82618
thorax 5.0155 -0.20179 -1.82127
lowerneck -22.1167 -5.93899 -8.89481
upperneck 24.4275 -8.21923 9.97511
head 12.614 -3.19939 3.86322
rclavicle -9.93923e-015 -9.54166e-015
rhumerus -14.4443 5.96129 -13.5211
rradius 23.047
rwrist -17.4142
rhand -5.99383 4.02979
rfingers 7.12502
rthumb 19.8383 -24.9777
lclavicle -9.93923e-015 -9.54166e-015
lhumerus -19.8066 1.50212 9.83202
lradius 20.9226
lwrist -8.24105
lhand -9.26764 4.28596
lfingers 7.12502
lthumb 16.6888 33.5886
rfemur -13.1759 26.3649 16.9151
rtibia 29.9473
rfoot -37.7714 -33.4386
rtoes 14.429
lfemur -13.2273 -20.5847 -13.7165
ltibia 26.6007
lfoot -19.3403 26.0607
ltoes 2.30728
7
root 3.33461 17.5243 -32.3064 7.8168 1.15268 0.959637
lowerback -4.58793 -0.417724 -0.20155
upperback 2.37958 -0.458268 -1.82455
thorax 5.02479 -0.200811 -1.81829
lowerneck -22.0724 -5.91963 -8.94366
upperneck 24.406 -8.18989 10.0239
head 12.5981 -3.18637 3.89607
rclavicle 5.1684e-015 1.15295e-014
rhumerus -14.4365 5.92962 -13.5214
rradius 23.0539
rwrist -17.3877
rhand -6.10497 4.05067
rfingers 7.12502
rthumb 19.7314 -24.9679
lclavicle 5.1684e-015 1.15295e-014
lhumerus -19.7191 1.5569 9.83528
lradius 20.9728
lwrist -8.32076
lhand -9.55543 4.2286
lfingers 7.12502
lthumb 16.4117 33.5543
rfemur -13.2237 26.369 16.8968
rtibia 29.9691
rfoot -37.8546 -33.4052
rtoes 14.467
lfemur -13.2577 -20.65 -13.7056
ltibia 26.593
lfoot -19.364 26.1272
ltoes 2.32346
8
root 3.3318 17.5241 -32.3032 7.85787 1.14911 0.970849
lowerback -4.59873 -0.416378 -0.203918
upperback 2.37749 -0.456319 -1.82214
thorax 5.02886 -0.199955 -1.81439
lowerneck -22.0579 -5.90067 -8.97504
upperneck 24.401 -8.15905 10.0481
head 12.5924 -3.17309 3.91668
rclavicle 1.98785e-016 7.15625e-015
rhumerus -14.4294 5.89684 -13.5213
rradius 23.0631
rwrist -17.3531
rhand -6.208 4.05676
rfingers 7.12502
rthumb 19.6324 -24.9719
lclavicle 1.98785e-016 7.15625e-015
lhumerus -19.6399 1.59826 9.84427
lradius 21.0294
lwrist -8.38367
lhand -9.8285 4.19531
lfingers 7.12502
lthumb 16.1488 33.5426
rfemur -13.2703 26.3725 16.8776
rtibia 29.9905
rfoot -37.9115 -33.3875
rtoes 14.4799
lfemur -13.2829 -20.7162 -13.6975
ltibia 26.5813
lfoot -19.3824 26.1949
ltoes 2.32262
9
root 3.3292 17.5241 -32.3002 7.8961 1.1456 0.980104
lowerback -4.5989 -0.415925 -0.204492
upperback 2.37506 -0.455953 -1.81707
thorax 5.02645 -0.199904 -1.80875
lowerneck -22.082 -5.88234 -8.9873
upperneck 24.419 -8.12617 10.0431
head 12.6008 -3.15942 3.92325
rclavicle -2.68359e-015 4.77083e-015
rhumerus -14.4196 5.87075 -13.5196
rradius 23.074
rwrist -17.3245
rhand -6.30078 4.05689
rfingers 7.12502
rthumb 19.5432 -24.9809
lclavicle -2.68359e-015 4.77083e-015
lhumerus -19.5742 1.6306 9.85784
lradius 21.0938
lwrist -8.42722
lhand -10.0843 4.18366
lfingers 7.12502
lthumb 15.9025 33.5507
rfemur -13.3154 26.3751 16.8602
rtibia 30.01
rfoot -37.948 -33.3718
rtoes 14.4921
lfemur -13.3038 -20.7767 -13.6883
ltibia 26.5667
lfoot -19.3989 26.2546
ltoes 2.32349
10
root 3.32682 17.524 -32.2974 7.9337 1.14399 0.989035
lowerback -4.58998 -0.419167 -0.205491
upperback 2.37098 -0.460812 -1.8083
thorax 5.01703 -0.202565 -1.79935
lowerneck -22.1596 -5.86393 -8.9726
upperneck 24.4733 -8.08926 9.99642
head 12.6303 -3.14479 3.91008
rclavicle -3.18055e-015 5.1684e-015
rhumerus -14.3977 5.84157 -13.5149
rradius 23.0864
rwrist -17.2962
rhand -6.3639 4.03962
rfingers 7.12502
rthumb 19.4825 -25.0043
lclavicle -3.18055e-015 5.1684e-015
lhumerus -19.5251 1.65795 9.87539
lradius 21.1622
lwrist -8.45592
lhand -10.3088 4.20137
lfingers 7.12502
lthumb 15.6863 33.5855
rfemur -13.3592 26.3748 16.8428
rtibia 30.0259
rfoot -37.9601 -33.3633
rtoes 14.4935
lfemur -13.3246 -20.8325 -13.6786
ltibia 26.551
lfoot -19.4186 26.305
ltoes 2.32925
11
root 3.32465 17.5241 -32.2947 7.97133 1.14485 0.99252
lowerback -4.57073 -0.423962 -0.199581
upperback 2.36208 -0.46853 -1.79714
thorax 4.99656 -0.206526 -1.79142
lowerneck -22.2407 -5.84346 -8.95775
upperneck 24.5284 -8.04855 9.94763
head 12.6603 -3.12866 3.89678
rclavicle -1.17283e-014 -8.34896e-015
rhumerus -14.3747 5.82419 -13.5089
rradius 23.0988
rwrist -17.2724
rhand -6.4059 4.02104
rfingers 7.12502
rthumb 19.4421 -25.027
lclavicle -1.17283e-014 -8.34896e-015
lhumerus -19.4855 1.67791 9.89342
lradius 21.2328
lwrist -8.47752
lhand -10.5183 4.22315
lfingers 7.12502
lthumb 15.4845 33.623
rfemur -13.4026 26.3717 16.8306
rtibia 30.0381
rfoot -37.9561 -33.371
rtoes 14.4709
lfemur -13.3469 -20.8821 -13.6625
ltibia 26.5352
lfoot -19.4395 26.347
ltoes 2.34281
12
root 3.32265 17.5242 -32.2921 8.00995 1.14567 0.990642
lowerback -4.54258 -0.428686 -0.188304
upperback 2.34582 -0.476844 -1.78361
thorax 4.96328 -0.210735 -1.78389
lowerneck -22.3092 -5.82138 -8.94754
upperneck 24.5789 -8.00565 9.90302
head 12.6861 -3.11195 3.88632
rclavicle 1.98785e-016 -6.36111e-015
rhumerus -14.3521 5.81148 -13.5004
rradius 23.1074
rwrist -17.2437
rhand -6.42603 4.00445
rfingers 7.12502
rthumb 19.4228 -25.0455
lclavicle 1.98785e-016 -6.36111e-015
lhumerus -19.4532 1.68613 9.9125
lradius 21.3033
lwrist -8.49397
lhand -10.6873 4.25592
lfingers 7.12502
lthumb 15.3217 33.6683
rfemur -13.4471 26.3685 16.8231
rtibia 30.047
rfoot -37.9394 -33.392
rtoes 14.4277
lfemur -13.371 -20.9241 -13.64
ltibia 26.5191
lfoot -19.461 26.3827
ltoes 2.35415
13
root 3.32078 17.5243 -32.2896 8.04909 1.14661 0.988413
lowerback -4.50846 -0.432649 -0.174382
upperback 2.32374 -0.484397 -1.77153
thorax 4.92054 -0.214523 -1.77913
lowerneck -22.3688 -5.79702 -8.93336
upperneck 24.6278 -7.96089 9.85644
head 12.7091 -3.09461 3.87481
rclavicle -3.18055e-015 8.74653e-015
rhumerus -14.3361 5.80924 -13.492
rradius 23.117
rwrist -17.2196
rhand -6.42652 3.98223
rfingers 7.12502
rthumb 19.4223 -25.0678
lclavicle -3.18055e-015 8.74653e-015
lhumerus -19.4244 1.67607 9.92907
lradius 21.3739
lwrist -8.50597
lhand -10.8066 4.29632
lfingers 7.12502
lthumb 15.2068 33.7175
rfemur -13.493 26.3649 16.815
rtibia 30.0542
rfoot -37.9098 -33.4282
rtoes 14.3653
lfemur -13.3965 -20.9609 -13.6169
ltibia 26.5024
lfoot -19.4852 26.4112
ltoes 2.37831
14
root 3.31904 17.5245 -32.287 8.08826 1.14582 0.985001
lowerback -4.46751 -0.434545 -0.158637
upperback 2.29332 -0.48947 -1.76005
thorax 4.86527 -0.217107 -1.77563
lowerneck -22.4046 -5.77137 -8.91964
upperneck 24.6701 -7.9162 9.81246
head 12.7249 -3.07782 3.86443
rclavicle 4.96962e-015 5.96354e-015
rhumerus -14.3273 5.81146 -13.482
rradius 23.1228
rwrist -17.1911
rhand -6.40098 3.97433
rfingers 7.12502
rthumb 19.4469 -25.0732
lclavicle 4.96962e-015 5.96354e-015
lhumerus -19.397 1.63762 9.94537
lradius 21.4435
lwrist -8.5135
lhand -10.8947 4.32791
lfingers 7.12502
lthumb 15.122 33.7555
rfemur -13.5382 26.363 16.8075
rtibia 30.0611
rfoot -37.8886 -33.4553
rtoes 14.3174
lfemur -13.4211 -20.9915 -13.5931
ltibia 26.4845
lfoot -19.5128 26.4336
ltoes 2.4269
